<?xml version="1.0" standalone="no"?>
<!DOCTYPE svg PUBLIC "-//W3C//DTD SVG 1.1//EN" "http://www.w3.org/Graphics/SVG/1.1/DTD/svg11.dtd" >
<svg xmlns="http://www.w3.org/2000/svg">
<metadata></metadata>
<defs>
<font id="urbanocondensed" horiz-adv-x="915" >
<font-face units-per-em="2048" ascent="1638" descent="-410" />
<missing-glyph horiz-adv-x="382" />
<glyph unicode="&#xfb01;" horiz-adv-x="876" d="M16 819v129h134v133q0 78 5.5 127t18 85t38 53.5t59.5 25.5t89 8q56 0 123 -14v-115q-59 6 -67 6q-50 0 -74 -28q-18 -23 -18 -99v-182h159v-129h-159v-819h-174v819h-134zM598 0v948h174v-948h-174zM598 1182v184h174v-184h-174z" />
<glyph unicode="&#xfb02;" horiz-adv-x="876" d="M16 819v129h134v133q0 78 5.5 127t18 85t38 53.5t59.5 25.5t89 8q56 0 123 -14v-115q-59 6 -67 6q-50 0 -74 -28q-18 -23 -18 -99v-182h159v-129h-159v-819h-174v819h-134zM598 0v1366h174v-1366h-174z" />
<glyph horiz-adv-x="2048" />
<glyph horiz-adv-x="2048" />
<glyph unicode="&#xd;" horiz-adv-x="2048" />
<glyph unicode=" "  horiz-adv-x="382" />
<glyph unicode="&#x09;" horiz-adv-x="382" />
<glyph unicode="&#xa0;" horiz-adv-x="382" />
<glyph unicode="!" horiz-adv-x="409" d="M102 1366h205l-28 -1049h-140zM125 0v184h174v-184h-174z" />
<glyph unicode="&#x22;" horiz-adv-x="679" d="M88 1366h191l-29 -549h-133zM399 1366h191l-29 -549h-133z" />
<glyph unicode="#" horiz-adv-x="1398" d="M82 457l53 131h281l82 203h-281l53 133h281l154 381h141l-154 -381h205l154 381h141l-154 -381h281l-53 -133h-281l-84 -203h281l-54 -131h-280l-154 -381h-139l154 381h-205l-154 -381h-141l153 381h-280zM557 588h203l84 203h-205z" />
<glyph unicode="$" d="M96 463q0 5 4 63h172l-2 -39q-4 -74 5 -114.5t34 -71.5q22 -29 64.5 -46t95.5 -17q86 0 133 50.5t47 141.5q0 92 -61 150q-45 43 -187 118q-160 83 -218 160t-58 205q0 136 75 214.5t218 92.5v141h98v-141q157 -19 224 -97.5t67 -244.5q0 -15 -2 -27h-170q0 72 -5 102.5 t-20 57.5q-44 78 -145 78q-77 0 -121.5 -47t-44.5 -129q0 -74 45 -125q27 -30 57 -50t131 -75q145 -77 199 -131q92 -86 92 -244q0 -152 -75.5 -234.5t-231.5 -101.5v-141h-98v141q-166 13 -244 101t-78 260z" />
<glyph unicode="%" horiz-adv-x="1228" d="M68 1012q0 143 4 196t16 80q23 45 71.5 71.5t108.5 26.5t109 -26.5t69 -69.5q12 -26 15.5 -77.5t3.5 -200.5q0 -164 -5 -213.5t-24 -79.5q-23 -37 -69.5 -58.5t-100.5 -21.5q-66 0 -116.5 32t-69.5 85q-12 40 -12 256zM207 0l706 1366h107l-707 -1366h-106zM207 995 q0 -61 0.5 -97.5t3 -67.5t6 -45.5t11 -24.5t16.5 -12.5t24 -2.5q45 0 54 50q4 32 4 237q0 91 -1.5 136.5t-8.5 74t-17 35t-31 6.5q-23 0 -34 -6.5t-18 -41t-8 -83.5t-1 -158zM762 352q0 143 4 196.5t16 80.5q23 45 72 71.5t109 26.5t109 -26.5t69 -69.5q12 -26 15 -76.5 t3 -202.5q0 -164 -5 -213.5t-24 -79.5q-23 -37 -69 -58t-100 -21q-66 0 -117 31.5t-70 84.5q-12 41 -12 256zM901 336q0 -61 0.5 -98t3.5 -67.5t6.5 -45t11 -24.5t16.5 -12.5t24 -2.5q45 0 53 49q4 32 4 238q0 62 -0.5 99t-3 68t-6 45.5t-10.5 24.5t-15 12.5t-22 2.5 q-43 0 -52.5 -45.5t-9.5 -243.5z" />
<glyph unicode="&#x26;" horiz-adv-x="1042" d="M76 375q0 170 90 260q31 31 67 48t101 32q-117 38 -167 109.5t-50 199.5q0 102 33 181.5t92 117.5q51 32 113.5 44.5t174.5 12.5q75 0 138 -2v-145q-33 2 -74 2q-154 0 -211 -35q-38 -22 -60 -70.5t-22 -111.5q0 -69 25 -123t71 -82q57 -35 174 -35h97v180h176v-180h160 v-151h-160v-623q-123 -18 -269 -18q-149 0 -241.5 22.5t-147.5 73.5q-110 101 -110 293zM266 389q0 -67 25.5 -124.5t68.5 -88.5q53 -39 162 -39q53 0 146 8v482h-115q-93 0 -134 -9.5t-77 -39.5q-35 -31 -55.5 -81t-20.5 -108z" />
<glyph unicode="'" horiz-adv-x="368" d="M88 1366h191l-29 -549h-133z" />
<glyph unicode="(" horiz-adv-x="536" d="M88 532q0 290 197 834h114q-68 -252 -96.5 -435t-28.5 -368q0 -193 27.5 -384t97.5 -484h-114q-197 531 -197 837z" />
<glyph unicode=")" horiz-adv-x="536" d="M137 -305q70 293 97.5 484t27.5 384q0 185 -28.5 368t-96.5 435h115q197 -544 197 -834q0 -306 -197 -837h-115z" />
<glyph unicode="*" horiz-adv-x="780" d="M68 1069l43 121l219 -70v246h131v-246l215 70l37 -121l-211 -72l131 -184l-107 -78l-133 183l-137 -183l-102 78l133 184z" />
<glyph unicode="+" d="M76 633v139h313v299h139v-299h312v-139h-312v-299h-139v299h-313z" />
<glyph unicode="," horiz-adv-x="382" d="M33 -244l69 359h207l-149 -359h-127z" />
<glyph unicode="-" horiz-adv-x="344" d="M0 444v154h344v-154h-344z" />
<glyph unicode="." horiz-adv-x="382" d="M104 0v184h175v-184h-175z" />
<glyph unicode="/" horiz-adv-x="935" d="M-27 -227l807 1593h158l-809 -1593h-156z" />
<glyph unicode="0" d="M92 684q0 277 7 373.5t32 150.5q40 89 120 130.5t210 41.5q140 0 222 -49.5t116 -154.5q17 -53 22.5 -145t5.5 -314q0 -308 -5.5 -402.5t-26.5 -144.5q-76 -184 -334 -184q-281 0 -346 204q-13 41 -18 144t-5 350zM274 666q0 -335 15 -412q10 -60 56.5 -93.5t115.5 -33.5 q136 0 166 119q13 50 15.5 109.5t2.5 334.5v223q0 105 -7.5 157.5t-27.5 90.5q-43 78 -153 78q-72 0 -113.5 -36.5t-56.5 -112.5q-13 -60 -13 -424z" />
<glyph unicode="1" d="M225 1020v170q115 73 149.5 98.5t86.5 77.5h157v-1366h-186v1153q-39 -31 -65 -48.5t-107 -64.5z" />
<glyph unicode="2" d="M92 0v158q42 55 277 383q155 215 197 302.5t42 196.5q0 97 -44.5 148t-127.5 51t-117 -50.5t-40 -182.5h-187q5 163 60 243q88 131 292 131q150 0 236 -75q59 -50 85 -115t26 -166q0 -106 -32 -189.5t-122 -211.5q-55 -79 -89.5 -123.5t-174.5 -220.5l-94 -121h544v-158 h-731z" />
<glyph unicode="3" d="M88 375h184q2 -81 17 -133q17 -54 62 -84.5t108 -30.5q91 0 137.5 60.5t46.5 177.5q0 156 -58 213.5t-218 60.5v156q126 0 185.5 54t59.5 169q0 105 -44 163t-124 58q-82 0 -122 -59q-19 -28 -26 -68t-7 -117h-187q0 109 9 161t36 95q83 129 291 129q174 0 265.5 -90.5 t91.5 -263.5q0 -145 -84 -229q-29 -28 -62.5 -43t-93.5 -27q146 -29 208 -107.5t62 -232.5q0 -189 -84 -285q-47 -55 -126 -85.5t-173 -30.5q-103 0 -182 36.5t-119 102.5q-28 44 -39.5 101t-13.5 149z" />
<glyph unicode="4" d="M27 326v157l411 883h244v-883h207v-157h-207v-326h-176v326h-479zM203 483h303v691z" />
<glyph unicode="5" d="M106 350h181q2 -122 41 -172.5t133 -50.5q97 0 135.5 69.5t38.5 241.5q0 173 -38.5 242.5t-135.5 69.5q-136 0 -166 -179h-182l24 795h602v-166h-432l-12 -407q54 53 107.5 75.5t123.5 22.5q89 0 155 -39.5t95 -110.5q41 -99 41 -282q0 -210 -53 -316 q-37 -75 -115.5 -116t-185.5 -41q-117 0 -201 40t-121 113q-20 39 -27.5 85.5t-7.5 125.5z" />
<glyph unicode="6" d="M86 616q0 259 17.5 397.5t58.5 209.5q49 83 119.5 120t179.5 37q224 0 303 -149q22 -40 30.5 -94t8.5 -150h-187q-2 110 -16 150q-40 102 -139 102q-59 0 -100 -31.5t-60 -89.5q-29 -96 -29 -291v-69q57 60 109 84t121 24q154 0 240.5 -112.5t86.5 -311.5 q0 -222 -95.5 -339t-278.5 -117q-242 0 -320 178q-49 106 -49 452zM266 438q0 -152 47 -231.5t138 -79.5q94 0 145 83.5t51 235.5q0 143 -46 211t-144 68q-97 0 -144 -70.5t-47 -216.5z" />
<glyph unicode="7" d="M121 1200v166h674v-141l-353 -1225h-196l368 1200h-493z" />
<glyph unicode="8" d="M88 367q0 141 54.5 222.5t174.5 121.5q-223 68 -223 315q0 170 92.5 262t262.5 92q164 0 256 -96t92 -266q0 -237 -209 -307q239 -52 239 -357q0 -368 -372 -368q-182 0 -274.5 96t-92.5 285zM270 395q0 -129 49 -198.5t140 -69.5q186 0 186 238q0 274 -184 274 q-89 0 -140 -65t-51 -179zM276 1026q0 -231 179 -231q74 0 116.5 54t42.5 148q0 242 -170 242q-168 0 -168 -213z" />
<glyph unicode="9" d="M94 971q0 409 369 409q117 0 192.5 -40.5t116.5 -125.5q29 -58 40 -161.5t11 -317.5q0 -293 -12.5 -413t-50.5 -183q-44 -75 -123.5 -114t-185.5 -39q-109 0 -191.5 39.5t-120.5 109.5q-23 41 -31 92.5t-8 149.5h183q3 -83 7.5 -116.5t16.5 -57.5q19 -36 55.5 -56 t83.5 -20q158 0 185 164q10 69 10 207v141q-95 -98 -238 -98q-151 0 -230 110.5t-79 319.5zM276 973q0 -152 31 -213q17 -37 57 -57.5t91 -20.5q98 0 140 62.5t42 211.5q0 154 -40.5 218.5t-137.5 64.5q-99 0 -141 -61t-42 -205z" />
<glyph unicode=":" horiz-adv-x="382" d="M104 0v184h175v-184h-175zM104 764v184h175v-184h-175z" />
<glyph unicode=";" horiz-adv-x="382" d="M33 -244l69 359h207l-149 -359h-127zM111 764v184h174v-184h-174z" />
<glyph unicode="&#x3c;" horiz-adv-x="1024" d="M68 616v150l886 424v-174l-700 -326l700 -325v-172z" />
<glyph unicode="=" d="M76 510v139h764v-139h-764zM76 756v139h764v-139h-764z" />
<glyph unicode="&#x3e;" horiz-adv-x="1024" d="M70 193v174l700 323l-700 326v172l886 -422v-150z" />
<glyph unicode="?" horiz-adv-x="741" d="M61 1004v40q0 171 58 244q34 43 106.5 70.5t153.5 27.5q148 0 224.5 -81t76.5 -238q0 -103 -31.5 -181.5t-109.5 -172.5t-95.5 -137.5t-17.5 -143.5v-86h-162v166q0 92 19 136t102 147q60 72 84.5 134t24.5 144q0 172 -123 172q-85 0 -113 -69q-4 -10 -6 -21t-2.5 -22.5 t-2 -41.5t-3.5 -63l-2 -24h-181zM264 0v186h174v-186h-174z" />
<glyph unicode="@" horiz-adv-x="1501" d="M68 500q0 198 95 363t260 259.5t363 94.5q138 0 258.5 -46.5t206.5 -127t135.5 -193.5t49.5 -242q0 -125 -47 -237t-125.5 -179t-165.5 -67q-60 0 -101.5 35.5t-50.5 95.5q-44 -67 -111.5 -104t-144.5 -37q-125 0 -207 93.5t-82 235.5q0 169 106.5 291.5t252.5 122.5 q160 0 219 -137l22 115l132 -2l-82 -420q-13 -67 -13 -97q0 -36 19 -60t47 -24q54 0 104 53t80.5 140t30.5 180q0 215 -148 353.5t-380 138.5q-165 0 -301 -79t-214.5 -217t-78.5 -304q0 -118 42 -226t119 -190q162 -168 437 -168q227 0 419 86l35 -117q-201 -88 -450 -88 q-322 0 -523 195q-98 97 -153 231t-55 279zM549 446q0 -87 48.5 -142.5t123.5 -55.5q90 0 153.5 84t63.5 203q0 84 -44 134t-118 50q-92 0 -159.5 -81.5t-67.5 -191.5z" />
<glyph unicode="A" horiz-adv-x="995" d="M6 0l377 1366h231l373 -1366h-190l-80 303h-451l-80 -303h-180zM305 463h377l-182 770z" />
<glyph unicode="B" horiz-adv-x="978" d="M109 0v1366h331q126 0 189.5 -14.5t115.5 -55.5q101 -79 101 -278q0 -131 -50.5 -199.5t-168.5 -99.5q63 -15 96 -28t63 -34q111 -79 111 -284q0 -218 -111 -303q-54 -41 -130.5 -55.5t-239.5 -14.5h-307zM297 152h123q108 0 153 8t76 33q60 51 60 184q0 144 -66.5 203 t-228.5 59h-117v-487zM297 788h156q112 0 163.5 49.5t51.5 155.5q0 119 -51.5 172.5t-165.5 53.5h-154v-431z" />
<glyph unicode="C" horiz-adv-x="866" d="M82 694q0 273 8.5 372.5t36.5 152.5q87 167 330 167q226 0 319 -157q47 -79 47 -239v-19h-186v33q0 231 -178 231q-57 0 -103 -25.5t-63 -68.5q-23 -62 -23 -308v-59l4 -416q1 -84 15 -124.5t49 -65.5q49 -37 121 -37q109 0 151 80q14 28 20 75t7 148h186q2 -16 2 -37 q0 -218 -86.5 -317.5t-277.5 -99.5q-293 0 -352 210q-15 57 -21 159t-6 345z" />
<glyph unicode="D" horiz-adv-x="985" d="M109 0v1366h340q162 0 257 -35t138 -110q35 -62 47 -171.5t12 -377.5q0 -250 -9 -343.5t-40 -156.5q-84 -172 -403 -172h-342zM297 160h156q165 0 211 61q32 44 41.5 133t9.5 357q0 92 -1 151.5t-6.5 115.5t-12 88t-21.5 61t-31.5 42t-45.5 22.5t-60 12t-78 2.5h-162 v-1046z" />
<glyph unicode="E" horiz-adv-x="808" d="M109 0v1366h620v-160h-432v-434h408v-160h-408v-452h457v-160h-645z" />
<glyph unicode="F" horiz-adv-x="774" d="M109 0v1366h624v-160h-436v-434h414v-160h-414v-612h-188z" />
<glyph unicode="G" horiz-adv-x="964" d="M82 684q0 300 5.5 380.5t31.5 135.5q44 96 134.5 141t238.5 45q120 0 199 -37.5t126 -115.5q51 -81 51 -244h-188q-3 116 -31 166q-49 80 -168 80q-183 0 -207 -174q-4 -40 -4 -373q0 -374 15 -438q15 -57 66.5 -88t129.5 -31q118 0 199 51v387h-217v160h405v-633 q-95 -64 -184.5 -90t-214.5 -26q-304 0 -369 221q-12 39 -15 127t-3 356z" />
<glyph unicode="H" horiz-adv-x="989" d="M109 0v1366h188v-580h393v580h189v-1366h-189v627h-393v-627h-188z" />
<glyph unicode="I" horiz-adv-x="407" d="M109 0v1366h188v-1366h-188z" />
<glyph unicode="J" horiz-adv-x="790" d="M0 424h182q2 -123 13 -170q31 -123 147 -123q90 0 127 66q13 23 18 57t5 108v1004h188v-973q0 -122 -16.5 -190t-57.5 -121q-80 -102 -262 -102q-185 0 -265 104q-79 103 -79 334v6z" />
<glyph unicode="K" horiz-adv-x="950" d="M109 0v1366h188v-1366h-188zM313 752l392 614h217l-412 -614l440 -752h-235z" />
<glyph unicode="L" horiz-adv-x="718" d="M109 0v1366h188v-1206h422v-160h-610z" />
<glyph unicode="M" horiz-adv-x="1366" d="M109 0v1366h317l205 -797q7 -28 12.5 -50.5t11.5 -58t9 -55.5t12 -84t14 -102q26 195 64 350l204 797h297v-1366h-163v1257l-326 -1257h-160l-334 1257v-1257h-163z" />
<glyph unicode="N" horiz-adv-x="1062" d="M109 0v1366h294l271 -811q3 -8 8.5 -29.5t20 -69.5t34.5 -112l17 -51l24 -92l17 -49q-4 54 -4 59l-7 68l-4 141v946h172v-1366h-278l-318 950l-34 125q-12 36 -25 92q0 4 -16 58v-47v-37v-58v-88v-995h-172z" />
<glyph unicode="O" horiz-adv-x="952" d="M82 727q0 222 3 303.5t11 122t31 82.5q86 151 360 151q269 0 349 -176q22 -47 28 -139t6 -366q0 -427 -18 -500q-26 -105 -124.5 -165t-244.5 -60q-163 0 -265 65.5t-122 183.5q-14 83 -14 498zM270 731q0 -271 3 -364t14 -125q17 -52 67.5 -81.5t124.5 -29.5 q106 0 154.5 49.5t48.5 161.5v571q0 150 -6 189t-33 72q-48 61 -174 61q-145 0 -182 -100q-11 -28 -14 -103.5t-3 -300.5z" />
<glyph unicode="P" horiz-adv-x="899" d="M109 0v1366h376q361 0 361 -375q0 -198 -98 -299q-51 -53 -112.5 -71.5t-182.5 -18.5h-156v-602h-188zM297 762h139q119 0 166 47q55 55 55 178q0 115 -53 167t-170 52h-137v-444z" />
<glyph unicode="Q" horiz-adv-x="966" d="M82 713v84q0 218 4 281q6 76 31 128q41 88 132 134t220 46q122 0 211 -40t135 -115q25 -40 34.5 -83.5t13 -131.5t3.5 -305q0 -268 -2.5 -339.5t-13.5 -107.5q-13 -45 -36.5 -78t-70.5 -77q119 32 201 32q21 0 35 -2v-139q-25 2 -57 2q-221 0 -324 -12q-98 -10 -143 -10 q-156 0 -262 81q-59 45 -83.5 115.5t-25.5 204.5zM270 713q0 -281 4 -361t21 -121q20 -47 68 -73.5t114 -26.5q79 0 124.5 35.5t64.5 109.5q12 55 12 478q0 180 -4 251t-15 109q-40 121 -194 121q-138 0 -176 -100q-19 -50 -19 -422z" />
<glyph unicode="R" horiz-adv-x="972" d="M109 0v1366h366q114 0 180.5 -15.5t112.5 -52.5q102 -80 102 -284q0 -138 -52 -206.5t-183 -102.5q37 -9 60 -15t46 -20t35.5 -25.5t25 -39.5t18.5 -54t12.5 -77.5t10.5 -100t9 -131.5q6 -89 15.5 -135.5t33.5 -106.5h-209q-19 49 -26 119q-2 24 -23 287 q-5 71 -16.5 110.5t-38.5 65t-68 33.5t-112 8h-111v-623h-188zM297 772h141q131 0 187.5 53t56.5 176q0 120 -53.5 166.5t-190.5 46.5h-141v-442z" />
<glyph unicode="S" horiz-adv-x="946" d="M76 377q0 45 2 76h192q0 -127 15 -189q38 -133 192 -133q98 0 152.5 55.5t54.5 153.5q0 90 -52 150.5t-192 134.5q-187 100 -255 186.5t-68 226.5q0 167 96 257.5t274 90.5q128 0 217 -46.5t127 -133.5q19 -40 26 -90t7 -141h-188q-2 16 -2 39q0 58 -5.5 85t-23.5 56 q-51 80 -158 80q-86 0 -134 -49t-48 -137q0 -62 25 -108t82 -89q22 -18 46 -32t138 -75q155 -85 215.5 -171.5t60.5 -223.5q0 -180 -101 -275t-292 -95q-203 0 -303 98t-100 299z" />
<glyph unicode="T" horiz-adv-x="856" d="M0 1206v160h856v-160h-334v-1206h-188v1206h-334z" />
<glyph unicode="U" horiz-adv-x="995" d="M109 498v868h188v-932q0 -155 29 -215q22 -40 69.5 -64t104.5 -24q62 0 108.5 29t65.5 78q22 62 22 196v932h189v-868q0 -195 -13.5 -267t-60.5 -127q-105 -124 -319 -124q-111 0 -194.5 35t-125.5 102q-34 51 -48.5 138.5t-14.5 242.5z" />
<glyph unicode="V" horiz-adv-x="909" d="M6 1366h201l190 -862q33 -155 64 -352q15 97 69 352l187 862h184l-326 -1366h-239z" />
<glyph unicode="W" horiz-adv-x="1495" d="M6 1366h191l131 -614q45 -210 90 -598q28 216 90 516l143 696h211l160 -754q17 -82 65 -458q26 154 37 233l29 184l156 795h178l-295 -1366h-215l-137 659q-46 222 -84 572q-30 -256 -74 -465l-160 -766h-207z" />
<glyph unicode="X" horiz-adv-x="940" d="M0 0l367 705l-338 661h204l152 -313l53 -117l37 -102q30 81 84 190l170 342h180l-336 -661l367 -705h-211l-188 399q-10 22 -26 59.5t-23 51.5q-17 39 -29 74q-20 -71 -80 -185l-201 -399h-182z" />
<glyph unicode="Y" horiz-adv-x="909" d="M6 1366h219l146 -340q27 -62 41.5 -110t46.5 -177q48 161 73 217l177 410h192l-342 -791v-575h-188v557z" />
<glyph unicode="Z" horiz-adv-x="884" d="M61 0v195l564 1011h-541v160h745v-182l-571 -1024h571v-160h-768z" />
<glyph unicode="[" horiz-adv-x="561" d="M117 -322v1688h350v-149h-166v-1387h166v-152h-350z" />
<glyph unicode="\" horiz-adv-x="935" d="M0 1366h158l807 -1593h-158z" />
<glyph unicode="]" horiz-adv-x="561" d="M96 -172h166v1386h-166v152h350v-1688h-350v150z" />
<glyph unicode="^" horiz-adv-x="1024" d="M43 735l354 635h230l354 -635h-186l-283 498l-283 -498h-186z" />
<glyph unicode="_" horiz-adv-x="1024" d="M0 -125h1024v-160h-1024v160z" />
<glyph unicode="`" horiz-adv-x="1024" d="M233 1378h205l154 -291h-123z" />
<glyph unicode="a" horiz-adv-x="806" d="M84 264q0 122 46 191t149 100q61 19 247 31v90q0 80 -14 108q-12 26 -42.5 41t-70.5 15q-66 0 -91 -35.5t-27 -128.5h-175q1 79 15.5 125.5t48.5 81.5q77 80 233 80q167 0 244 -99q33 -42 43 -90.5t10 -163.5v-610h-174v102q-80 -116 -225 -116q-110 0 -163.5 68 t-53.5 210zM258 268q0 -141 107 -141q43 0 81 24.5t58 65.5q14 28 18 55t4 88v103q-150 -6 -209 -49t-59 -146z" />
<glyph unicode="b" horiz-adv-x="811" d="M104 0v1366h175v-500q41 53 86.5 75t111.5 22q91 0 151.5 -46t82.5 -131q16 -69 16 -274q0 -298 -20 -379q-19 -66 -81 -106.5t-145 -40.5q-69 0 -116.5 26t-85.5 84v-96h-175zM279 422q0 -166 37 -239.5t122 -73.5q94 0 109 98q6 36 6 289q0 198 -10 243 q-9 48 -41.5 74.5t-83.5 26.5q-71 0 -107 -49q-20 -26 -26 -62.5t-6 -124.5v-182z" />
<glyph unicode="c" horiz-adv-x="716" d="M84 473q0 186 7.5 253.5t35.5 119.5q60 117 242 117q93 0 159 -30t95 -87q15 -30 21.5 -65.5t12.5 -123.5h-176q-4 75 -14 113q-7 32 -34 51t-64 19q-96 0 -105 -127q-6 -117 -6 -269q0 -175 10 -233q15 -102 111 -102q60 0 88.5 44.5t28.5 139.5v4h174q2 -14 2 -31 q0 -132 -78 -206t-215 -74q-192 0 -252 120q-25 52 -34 131.5t-9 235.5z" />
<glyph unicode="d" horiz-adv-x="804" d="M84 492q0 254 22 319q25 72 83.5 112t140.5 40q64 0 108.5 -22t85.5 -75v500h174v-1366h-174v92q-44 -60 -87.5 -83t-112.5 -23q-94 0 -153.5 50.5t-76.5 145.5q-10 48 -10 310zM258 479q0 -263 12 -301q26 -69 109 -69q75 0 110 64t35 202v237q0 73 -4 102t-18 56 q-36 70 -115 70q-44 0 -76 -24.5t-43 -65.5q-10 -42 -10 -271z" />
<glyph unicode="e" horiz-adv-x="770" d="M84 526q0 133 10 204t35 114q72 119 254 119q88 0 153.5 -28t96.5 -79q29 -45 40 -111t11 -186v-129h-428v-98q0 -123 29.5 -173t101.5 -50q40 0 73.5 21.5t43.5 55.5q10 29 10 107h170q-6 -137 -49 -203q-70 -104 -252 -104q-228 0 -281 190q-18 70 -18 350zM256 559 h252v59q0 128 -27 175t-102 47q-70 0 -96.5 -44t-26.5 -163v-74z" />
<glyph unicode="f" horiz-adv-x="499" d="M16 819v129h134v133q0 78 5.5 127t18 85t38 53.5t59.5 25.5t89 8q56 0 123 -14v-115q-59 6 -67 6q-50 0 -74 -28q-18 -23 -18 -99v-182h159v-129h-159v-819h-174v819h-134z" />
<glyph unicode="g" horiz-adv-x="808" d="M82 485q0 179 6.5 245.5t28.5 107.5q66 125 225 125q67 0 110.5 -21.5t75.5 -71.5v78h174v-915q0 -122 -8.5 -172t-34.5 -92q-35 -56 -109 -89.5t-163 -33.5q-283 0 -283 262v20h183q4 -36 4 -39q4 -67 28.5 -93.5t81.5 -26.5q75 0 107 49q12 19 16 47.5t4 93.5v152 q-76 -95 -202 -95q-85 0 -144.5 48.5t-81.5 136.5q-18 74 -18 284zM256 500q0 -225 10 -267q12 -44 44.5 -69t76.5 -25q59 0 96 43q26 29 35.5 74t9.5 137v207q0 131 -24 172q-15 29 -51 48.5t-76 19.5q-43 0 -71.5 -19t-37.5 -53q-12 -40 -12 -268z" />
<glyph unicode="h" horiz-adv-x="829" d="M104 0v1366h175v-500q44 52 91 74.5t113 22.5q72 0 126.5 -27t80.5 -74q22 -41 28.5 -89.5t6.5 -166.5v-606h-174v606q0 141 -23 180q-31 54 -112 54q-74 0 -105.5 -50t-31.5 -165v-625h-175z" />
<glyph unicode="i" horiz-adv-x="385" d="M104 0v948h175v-948h-175zM104 1182v184h175v-184h-175z" />
<glyph unicode="j" horiz-adv-x="391" d="M-6 -227q82 0 99.5 16t17.5 88v1071h174v-1048q0 -82 -12 -124.5t-44 -74.5q-31 -31 -69.5 -43t-106.5 -12q-30 0 -59 2v125zM111 1174v192h174v-192h-174z" />
<glyph unicode="k" horiz-adv-x="772" d="M104 0v1366h175v-807l258 389h192l-283 -413l320 -535h-201l-286 532v-532h-175z" />
<glyph unicode="l" horiz-adv-x="385" d="M104 0v1366h175v-1366h-175z" />
<glyph unicode="m" horiz-adv-x="1239" d="M104 0v948h175v-84q43 54 91.5 76.5t121.5 22.5q67 0 111.5 -27.5t76.5 -87.5q41 61 92.5 88t126.5 27q127 0 184 -72q31 -41 40.5 -87.5t9.5 -152.5v-651h-175v651q0 89 -18 129q-14 28 -41.5 44t-62.5 16q-69 0 -100 -53t-31 -169v-618h-175v651q0 60 -4.5 88.5 t-17.5 51.5q-12 23 -38.5 36t-57.5 13q-71 0 -102 -52t-31 -170v-618h-175z" />
<glyph unicode="n" horiz-adv-x="833" d="M104 0v948h175v-74q51 50 97.5 69.5t115.5 19.5q138 0 198 -97q22 -33 29.5 -79.5t7.5 -139.5v-647h-174v631q0 112 -31.5 160.5t-103.5 48.5q-75 0 -107 -52t-32 -172v-616h-175z" />
<glyph unicode="o" horiz-adv-x="804" d="M84 502q0 235 35 309q67 152 274 152q230 0 293 -156q33 -75 33 -307q0 -177 -8.5 -256.5t-34.5 -128.5q-66 -129 -275 -129q-250 0 -297 192q-20 78 -20 324zM258 479q0 -101 3.5 -161t11 -105t25 -65.5t41 -29.5t62.5 -9q105 0 129 100q15 64 15 283q0 205 -10 253 q-24 95 -134 95q-115 0 -133 -103q-10 -68 -10 -258z" />
<glyph unicode="p" horiz-adv-x="806" d="M104 -354v1302h175v-78q40 51 82 72t104 21q94 0 158 -49t84 -138q14 -60 14 -317q0 -243 -27 -314q-28 -73 -93 -116t-148 -43q-56 0 -95.5 18.5t-78.5 63.5v-422h-175zM279 348q0 -107 18 -155q15 -38 48 -61t71 -23q100 0 121 122q10 58 10 224q0 227 -10 272 q-21 113 -123 113q-79 0 -115 -80q-20 -50 -20 -160v-252z" />
<glyph unicode="q" horiz-adv-x="804" d="M84 541q0 123 7 185.5t24 102.5q26 63 85.5 98.5t139.5 35.5q60 0 100 -20t86 -73v78h174v-1302h-174v422q-70 -82 -176 -82q-69 0 -132.5 35.5t-94.5 91.5q-25 46 -32 123t-7 305zM258 477q0 -217 14 -274q9 -43 39.5 -68.5t71.5 -25.5q37 0 69.5 19.5t49.5 51.5 q24 49 24 152v278q0 78 -5.5 112t-20.5 58q-19 26 -51 43t-64 17q-38 0 -68 -22t-45 -62q-14 -41 -14 -279z" />
<glyph unicode="r" horiz-adv-x="542" d="M104 0v948h175v-137q41 92 80.5 122t117.5 30q31 0 49 -2v-150l-49 2h-14q-97 1 -139 -51q-45 -56 -45 -189v-573h-175z" />
<glyph unicode="s" horiz-adv-x="720" d="M68 297h176q3 -106 32 -147t101 -41q50 0 80 29.5t30 78.5q0 55 -34.5 95t-163.5 134q-116 83 -156.5 140t-40.5 135q0 114 74 178t203 64q288 0 288 -240q0 -13 -4 -53h-166q0 54 -2 71t-10 37q-29 62 -100 62q-46 0 -77.5 -29t-31.5 -70q0 -45 33 -83.5t117 -92.5 q139 -90 192.5 -160.5t53.5 -166.5q0 -118 -77 -185t-212 -67q-118 0 -193.5 44t-97.5 126q-14 48 -14 141z" />
<glyph unicode="t" horiz-adv-x="516" d="M16 819v129h148v180l174 72v-252h147v-129h-147v-559q0 -93 14 -117t68 -24h65v-119h-125q-120 0 -167 59q-20 24 -24.5 48t-4.5 102v610h-148z" />
<glyph unicode="u" horiz-adv-x="817" d="M104 297v651h175v-637q0 -115 20 -151q12 -23 39 -37t61 -14q102 0 127 98q11 51 11 158v583h174v-948h-174v84q-41 -52 -86 -75t-107 -23q-63 0 -117.5 27t-83.5 73q-23 36 -31 80t-8 131z" />
<glyph unicode="v" horiz-adv-x="790" d="M16 948h181l145 -516q36 -126 68 -307q25 137 82 377l108 446h160l-244 -948h-215z" />
<glyph unicode="w" horiz-adv-x="1282" d="M23 948h180l100 -495q20 -100 35 -205l20 -135q22 175 62 340l115 495h229l94 -405q24 -110 80 -430l20 135l19 137q16 108 20 123l82 440h166l-207 -948h-211l-116 453q-33 121 -62 315l-12 72q-39 -249 -68 -371l-108 -469h-221z" />
<glyph unicode="x" horiz-adv-x="741" d="M16 0l269 489l-236 459h199l59 -137l29 -61q17 -35 59 -156q19 46 19 47q3 11 7.5 21.5t6.5 15.5t2 6l49 115l74 149h172l-246 -459l246 -489h-190l-103 201q-29 57 -76 190q-31 -112 -86 -217l-88 -174h-166z" />
<glyph unicode="y" horiz-adv-x="806" d="M23 948h198l113 -442q22 -85 65 -301l19 76q15 67 20 81l27 97l141 489h170l-403 -1294h-180l108 330z" />
<glyph unicode="z" horiz-adv-x="638" d="M47 0v154l359 665h-338v129h516v-151l-363 -668h373v-129h-547z" />
<glyph unicode="{" horiz-adv-x="563" d="M10 455v151q61 15 88 55.5t27 118.5v301q0 149 71 217t228 68q12 0 84 -2v-160q-121 0 -158 -31.5t-37 -134.5v-270q0 -100 -25.5 -152t-92.5 -92q66 -40 92 -94t26 -154v-264q0 -64 9.5 -96t33.5 -51q15 -12 56 -20.5t75 -6.5q13 0 21 2v-159q-23 -1 -40 -1.5t-23.5 -1 t-12 -0.5h-10.5q-157 0 -227 70.5t-70 228.5v291q0 87 -26 129.5t-89 57.5z" />
<glyph unicode="|" horiz-adv-x="1024" d="M424 -342v1708h174v-1708h-174z" />
<glyph unicode="}" horiz-adv-x="563" d="M55 -160q10 -2 23 -2q37 -1 77.5 8t55.5 23q22 20 30.5 51t8.5 92v264q0 99 26.5 153.5t92.5 94.5q-68 40 -93.5 92.5t-25.5 151.5v270q0 103 -37 134.5t-158 31.5v160q49 2 86 2q155 0 226 -68t71 -217v-301q0 -78 27 -118.5t88 -55.5v-151q-63 -15 -89 -57.5 t-26 -129.5v-291q0 -158 -70.5 -228.5t-230.5 -70.5h-35q-12 3 -47 3v159z" />
<glyph unicode="~" horiz-adv-x="1366" d="M188 1249q44 91 76 133q82 113 211 113q78 0 225 -65q93 -40 127 -51t68 -11q56 0 94 28t84 103l103 -61q-60 -120 -121 -170q-81 -68 -183 -68q-40 0 -93 18t-195 78q-73 31 -123 31q-51 0 -90 -32.5t-82 -110.5z" />
<glyph unicode="&#xa1;" horiz-adv-x="409" d="M102 -416l31 1047h137l37 -1047h-205zM113 764v184h174v-184h-174z" />
<glyph unicode="&#xa2;" d="M174 717q0 161 8 226t33 108q32 54 80 80.5t127 33.5v125h86v-125q130 -12 182.5 -79t57.5 -224h-177q-5 93 -18 127q-25 58 -92 58q-40 0 -68.5 -26t-36.5 -69q-8 -44 -8 -293q0 -185 10 -247q16 -97 115 -97q59 0 86.5 44t28.5 141h174q-5 -148 -65 -221t-189 -86v-166 h-86v166q-167 12 -217 145q-18 50 -24.5 130.5t-6.5 248.5z" />
<glyph unicode="&#xa3;" d="M23 692v158h165v92q0 120 16.5 188.5t57.5 124.5q44 60 117 92.5t162 32.5q97 0 175.5 -35t121.5 -98q27 -39 38.5 -87t14.5 -134h-193v16q0 92 -40.5 140.5t-118.5 48.5q-103 0 -142 -80q-22 -52 -22 -178v-123h262v-158h-262v-534h471v-158h-791v158h133v534h-165z" />
<glyph unicode="&#xa4;" horiz-adv-x="1366" d="M94 1231l99 98l196 -199q78 55 146.5 79t148.5 24t148 -23.5t141 -76.5l198 194l97 -96l-197 -197q55 -76 79 -144t24 -147q0 -149 -101 -286l199 -197l-96 -98l-197 198q-137 -102 -293 -102q-148 0 -295 100l-196 -196l-97 96l195 199q-100 132 -100 288q0 79 23.5 147 t78.5 140zM354 745q0 -136 96.5 -232.5t231.5 -96.5q137 0 233.5 96.5t96.5 232.5q0 135 -96 232.5t-228 97.5q-140 0 -237 -96t-97 -234z" />
<glyph unicode="&#xa5;" d="M53 1366h217l119 -342l62 -219q6 -17 12 -53q2 9 6 21.5t6 20t2 9.5q4 14 9 38t12.5 48t23.5 65l150 412h190l-157 -418h129v-157h-191l-53 -142h244v-157h-273v-492h-184v492h-281v157h244l-57 142h-187v157h123z" />
<glyph unicode="&#xa6;" horiz-adv-x="1024" d="M424 313h174v-655h-174v655zM424 678v688h174v-688h-174z" />
<glyph unicode="&#xa7;" d="M76 555q0 90 50 152.5t167 119.5q-115 51 -158 106.5t-43 153.5q0 135 100 217t263 82q143 0 313 -65v-162q-139 78 -287 78q-98 0 -152.5 -37.5t-54.5 -105.5q0 -81 82 -123q18 -9 170 -58q170 -54 242 -125t72 -186q0 -94 -48.5 -155t-158.5 -105q99 -37 144.5 -104.5 t45.5 -176.5q0 -160 -104 -252t-285 -92q-169 0 -328 76v166q152 -92 320 -92q215 0 215 182q0 86 -42.5 125.5t-174.5 77.5q-193 55 -272 127q-34 29 -55 78t-21 98zM258 575q0 -67 48 -105.5t179 -76.5q172 64 172 201q0 70 -49 112.5t-172 77.5q-103 -57 -140.5 -101 t-37.5 -108z" />
<glyph unicode="&#xa8;" horiz-adv-x="1024" d="M279 1137v178h170v-178h-170zM573 1137v178h170v-178h-170z" />
<glyph unicode="&#xa9;" horiz-adv-x="1570" d="M88 688q0 142 56 270t150.5 220.5t225.5 147t275 54.5q184 0 342.5 -94.5t251 -255t92.5 -346.5q0 -142 -55 -271t-148.5 -222.5t-222.5 -149t-271 -55.5q-143 0 -272 55.5t-221.5 149.5t-147.5 224t-55 273zM190 688q0 -123 47 -234.5t126 -191.5t189 -127t232 -47 q161 0 298 79.5t216.5 217t79.5 299.5q0 119 -47 228.5t-125.5 189.5t-186 128t-224.5 48q-272 0 -451 -197q-73 -82 -113.5 -184.5t-40.5 -208.5zM555 688q0 159 5 215t24 86q57 101 202 101q228 0 228 -234q0 -12 -2 -20h-129q2 10 2 26q0 123 -97 123q-31 0 -56 -13.5 t-34 -33.5q-12 -28 -12 -203q0 -272 12 -307q22 -49 90 -49q59 0 80 41q15 30 15 131h129q2 -12 2 -31q0 -127 -54.5 -186.5t-171.5 -59.5q-179 0 -217 127q-16 57 -16 287z" />
<glyph unicode="&#xaa;" horiz-adv-x="583" d="M88 592v86h408v-86h-408zM94 961q0 74 29.5 116.5t95.5 61.5q37 11 146 18v45q0 54 -14.5 72t-55.5 18q-38 0 -50 -19t-14 -79h-122q2 98 46 142t144 44q108 0 154 -61q21 -26 27.5 -56t6.5 -100v-366h-122v45q-51 -54 -132 -54q-139 0 -139 173zM217 963q0 -74 57 -74 q24 0 45 13t33 36q13 23 13 78v53q-84 -5 -116 -27t-32 -79z" />
<glyph unicode="&#xab;" horiz-adv-x="729" d="M55 504l162 373h143l-131 -373l160 -373h-151zM342 504l162 373h143l-131 -373l160 -373h-152z" />
<glyph unicode="&#xac;" horiz-adv-x="1024" d="M68 383v162h886v-545h-174v383h-712z" />
<glyph unicode="&#xad;" horiz-adv-x="344" d="M0 444v154h344v-154h-344z" />
<glyph unicode="&#xae;" horiz-adv-x="1570" d="M88 688q0 142 56 270t150.5 220.5t225.5 147t275 54.5q184 0 342.5 -94.5t251 -255t92.5 -346.5q0 -142 -55 -271t-148.5 -222.5t-222.5 -149t-271 -55.5q-143 0 -272 55.5t-221.5 149.5t-147.5 224t-55 273zM190 688q0 -123 47 -234.5t126 -191.5t189 -127t232 -47 q161 0 298 79.5t216.5 217t79.5 299.5q0 119 -47 228.5t-125.5 189.5t-186 128t-224.5 48q-272 0 -451 -197q-73 -82 -113.5 -184.5t-40.5 -208.5zM549 287v792h227q132 0 187 -47t55 -162q0 -72 -24.5 -110t-86.5 -64q25 -9 39.5 -18.5t25.5 -24t17 -45.5t10 -68t9 -106 q3 -53 8.5 -79t23.5 -68h-143q-15 34 -18 75l-7 80l-8 82q-8 74 -30.5 94.5t-98.5 20.5h-55v-352h-131zM680 743h74q72 0 102.5 27.5t30.5 93.5q0 63 -29 87t-104 24h-74v-232z" />
<glyph unicode="&#xaf;" horiz-adv-x="1024" d="M264 1165v121h494v-121h-494z" />
<glyph unicode="&#xb0;" horiz-adv-x="724" d="M88 1114q0 114 81 193t198 79q109 0 188.5 -81t79.5 -193q0 -114 -80 -194t-193 -80q-115 0 -194.5 80t-79.5 196zM203 1114q0 -67 46 -114.5t111 -47.5q66 0 113 47t47 113q0 65 -46 112.5t-109 47.5q-68 0 -115 -46t-47 -112z" />
<glyph unicode="&#xb1;" d="M76 59v140h764v-140h-764zM76 633v139h313v299h139v-299h312v-139h-312v-299h-139v299h-313z" />
<glyph unicode="&#xb2;" horiz-adv-x="598" d="M68 547v108q8 9 13.5 15t10 11t10 12.5t9 12t12 16t13 17.5t18 25t22.5 31l105 137q57 75 79.5 126.5t22.5 106.5q0 109 -98 109q-47 0 -66 -29t-22 -108h-129q3 123 56 180t167 57q106 0 162.5 -56.5t56.5 -162.5q0 -89 -43 -163t-213 -279q-16 -16 -47 -58h323v-108 h-462z" />
<glyph unicode="&#xb3;" horiz-adv-x="598" d="M66 784h129q3 -66 10 -84q19 -61 96 -61q105 0 105 131q0 91 -34.5 121.5t-135.5 30.5v108q83 0 117 27.5t34 93.5q0 123 -94 123q-47 0 -70 -33q-9 -11 -11.5 -16.5t-4.5 -26t-2 -63.5v-5h-131q0 73 5.5 105t24.5 59q53 80 183 80q110 0 168.5 -56t58.5 -161 q0 -69 -27 -109.5t-90 -66.5q135 -35 135 -197q0 -120 -61.5 -182.5t-179.5 -62.5q-117 0 -170 58t-55 187z" />
<glyph unicode="&#xb4;" horiz-adv-x="1024" d="M432 1087l154 291h205l-236 -291h-123z" />
<glyph unicode="&#xb5;" horiz-adv-x="1024" d="M86 -346v1329h174v-549q0 -105 16.5 -161t59.5 -97q70 -67 172 -67q119 0 188 90q38 47 53 103.5t15 148.5v532h174v-983h-174v162q-44 -97 -106.5 -142t-153.5 -45q-79 0 -138 35.5t-106 110.5v-467h-174z" />
<glyph unicode="&#xb6;" d="M14 1001q0 102 37 183.5t103 124.5q82 57 237 57h494v-143h-103v-1420h-157v1420h-133v-1420h-158v846h-27q-130 0 -211.5 97.5t-81.5 254.5z" />
<glyph unicode="&#xb7;" horiz-adv-x="378" d="M102 426v184h174v-184h-174z" />
<glyph unicode="&#xb8;" horiz-adv-x="1024" d="M365 -418l118 309h121l-69 -309h-170z" />
<glyph unicode="&#xb9;" horiz-adv-x="600" d="M150 1141v119l26 14q12 6 21 11.5t18 11.5t14.5 9t13.5 9.5t10.5 8.5t11 10t10 9t12 11t12.5 12h109v-819h-132v670q-24 -18 -49 -33z" />
<glyph unicode="&#xba;" horiz-adv-x="583" d="M88 592v86h408v-86h-408zM90 1100q0 139 23 186q43 94 174 94q145 0 186 -96q21 -52 21 -186q0 -104 -6 -152t-23 -78q-42 -80 -174 -80q-158 0 -189 119q-12 43 -12 193zM213 1087q0 -96 6 -137t21.5 -57t52.5 -16q50 0 64 39t14 178q0 94 -5.5 132.5t-20.5 52t-52 13.5 q-38 0 -53.5 -14.5t-21 -54t-5.5 -136.5z" />
<glyph unicode="&#xbb;" horiz-adv-x="729" d="M55 131l162 373l-133 373h145l160 -373l-182 -373h-152zM342 131l162 373l-133 373h145l160 -373l-182 -373h-152z" />
<glyph unicode="&#xbc;" horiz-adv-x="1548" d="M150 1141v119l26 14q12 6 21 11.5t18 11.5t14.5 9t13.5 9.5t10.5 8.5t11 10t10 9t12 11t12.5 12h109v-819h-132v670q-24 -18 -49 -33zM365 0l706 1366h113l-707 -1366h-112zM979 193v102l254 524h162v-518h127v-108h-127v-193h-123v193h-293zM1108 301h164v361z" />
<glyph unicode="&#xbd;" horiz-adv-x="1548" d="M150 1141v119l26 14q12 6 21 11.5t18 11.5t14.5 9t13.5 9.5t10.5 8.5t11 10t10 9t12 11t12.5 12h109v-819h-132v670q-24 -18 -49 -33zM365 0l706 1366h113l-707 -1366h-112zM1018 0v109q37 41 108 139l105 139q57 75 79.5 127.5t22.5 108.5q0 106 -98 106q-47 0 -66 -29 t-22 -108h-129q1 59 9.5 93.5t27.5 62.5q58 79 186 79q106 0 162.5 -56.5t56.5 -160.5q0 -90 -41 -160.5t-215 -283.5q-21 -21 -47 -57h324v-109h-463z" />
<glyph unicode="&#xbe;" horiz-adv-x="1548" d="M66 784h129q3 -66 10 -84q19 -61 96 -61q105 0 105 131q0 91 -34.5 121.5t-135.5 30.5v108q83 0 117 27.5t34 93.5q0 123 -94 123q-47 0 -70 -33q-9 -11 -11.5 -16.5t-4.5 -26t-2 -63.5v-5h-131q0 73 5.5 105t24.5 59q53 80 183 80q110 0 168.5 -56t58.5 -161 q0 -69 -27 -109.5t-90 -66.5q135 -35 135 -197q0 -120 -61.5 -182.5t-179.5 -62.5q-117 0 -170 58t-55 187zM391 0l707 1366h112l-706 -1366h-113zM977 193v102l254 524h162v-518h127v-108h-127v-193h-123v193h-293zM1106 301h164v361z" />
<glyph unicode="&#xbf;" horiz-adv-x="741" d="M61 -117q0 101 32 180t110 175q77 93 94.5 136t17.5 142v86h162v-166q0 -90 -19 -133.5t-102 -146.5q-60 -72 -84 -134.5t-24 -144.5q0 -172 123 -172q84 0 112 70q4 10 6 21t3 22t2.5 41.5t3.5 62.5l2 25h180v-41q0 -172 -57 -244q-34 -43 -107 -70.5t-154 -27.5 q-148 0 -224.5 81t-76.5 238zM303 762v186h174v-186h-174z" />
<glyph unicode="&#xc0;" horiz-adv-x="995" d="M6 0l377 1366h231l373 -1366h-190l-80 303h-451l-80 -303h-180zM184 1767h211l168 -290h-123zM305 463h377l-182 770z" />
<glyph unicode="&#xc1;" horiz-adv-x="995" d="M6 0l377 1366h231l373 -1366h-190l-80 303h-451l-80 -303h-180zM305 463h377l-182 770zM451 1477l167 290h211l-256 -290h-122z" />
<glyph unicode="&#xc2;" horiz-adv-x="995" d="M6 0l377 1366h231l373 -1366h-190l-80 303h-451l-80 -303h-180zM256 1477l168 288h176l166 -288h-135l-119 170l-119 -170h-137zM305 463h377l-182 770z" />
<glyph unicode="&#xc3;" horiz-adv-x="995" d="M6 0l377 1366h231l373 -1366h-190l-80 303h-451l-80 -303h-180zM258 1518q5 101 37 145q46 68 119 68q32 0 65.5 -14.5t104.5 -59.5q43 -25 59 -25q23 0 33 21t12 71h111q-3 -100 -43.5 -155.5t-110.5 -55.5q-53 0 -156 68q-53 31 -75 31q-38 0 -47 -94h-109zM305 463 h377l-182 770z" />
<glyph unicode="&#xc4;" horiz-adv-x="995" d="M6 0l377 1366h231l373 -1366h-190l-80 303h-451l-80 -303h-180zM258 1522v178h170v-178h-170zM305 463h377l-182 770zM594 1522v178h170v-178h-170z" />
<glyph unicode="&#xc5;" horiz-adv-x="995" d="M6 0l377 1366h231l373 -1366h-190l-80 303h-451l-80 -303h-180zM305 463h377l-182 770zM326 1634q0 75 55 129t131 54q75 0 128.5 -55t53.5 -130t-54.5 -129.5t-129.5 -54.5q-76 0 -130 54.5t-54 131.5zM414 1632q0 -40 28 -68t68 -28t68 28t28 68q0 39 -28 68t-66 29 q-41 0 -69.5 -28.5t-28.5 -68.5z" />
<glyph unicode="&#xc6;" horiz-adv-x="1404" d="M0 0l598 1366h729v-160h-473l59 -434h402v-160h-377l63 -452h349v-160h-508l-43 309h-473l-131 -309h-195zM397 469h379l-90 700z" />
<glyph unicode="&#xc7;" horiz-adv-x="866" d="M82 694q0 273 8.5 372.5t36.5 152.5q87 167 330 167q226 0 319 -157q50 -84 47 -258h-186v33q0 231 -178 231q-57 0 -103 -25.5t-63 -68.5q-26 -69 -23 -367l4 -416q1 -84 15 -124.5t49 -65.5q49 -37 121 -37q109 0 151 80q14 28 20 75t7 148h186q2 -16 2 -37 q0 -218 -86.5 -317.5t-277.5 -99.5q-293 0 -352 210q-15 57 -21 159t-6 345zM272 -418l119 309h121l-70 -309h-170z" />
<glyph unicode="&#xc8;" horiz-adv-x="808" d="M109 0v1366h620v-160h-432v-434h408v-160h-408v-452h457v-160h-645zM119 1767h211l168 -290h-123z" />
<glyph unicode="&#xc9;" horiz-adv-x="808" d="M109 0v1366h620v-160h-432v-434h408v-160h-408v-452h457v-160h-645zM350 1477l168 290h211l-256 -290h-123z" />
<glyph unicode="&#xca;" horiz-adv-x="808" d="M109 0v1366h620v-160h-432v-434h408v-160h-408v-452h457v-160h-645zM176 1477l168 288h176l166 -288h-135l-119 170l-119 -170h-137z" />
<glyph unicode="&#xcb;" horiz-adv-x="808" d="M109 0v1366h620v-160h-432v-434h408v-160h-408v-452h457v-160h-645zM178 1522v178h170v-178h-170zM514 1522v178h170v-178h-170z" />
<glyph unicode="&#xcc;" horiz-adv-x="407" d="M-82 1767h205l147 -290h-123zM109 0v1366h188v-1366h-188z" />
<glyph unicode="&#xcd;" horiz-adv-x="407" d="M109 0v1366h188v-1366h-188zM156 1477l147 290h205l-229 -290h-123z" />
<glyph unicode="&#xce;" horiz-adv-x="407" d="M-31 1477l154 288h176l154 -288h-138l-104 174l-105 -174h-137zM111 0v1366h188v-1366h-188z" />
<glyph unicode="&#xcf;" horiz-adv-x="407" d="M-2 1522v178h164v-178h-164zM109 0v1366h188v-1366h-188zM272 1522v178h164v-178h-164z" />
<glyph unicode="&#xd0;" horiz-adv-x="985" d="M0 627v157h109v582h342q161 0 255.5 -35t137.5 -110q35 -62 47 -172t12 -379q0 -248 -9 -341.5t-40 -156.5q-84 -172 -403 -172h-342v627h-109zM297 160h156q89 0 138.5 14.5t74.5 46.5q33 45 41 129.5t8 360.5q0 73 -0.5 124t-3.5 100.5t-7 81.5t-12 62.5t-17 48 t-25 33.5t-32 23.5t-42 13t-52 7t-63 1.5h-164v-422h274v-157h-274v-467z" />
<glyph unicode="&#xd1;" horiz-adv-x="1062" d="M109 0v1366h294l271 -811q3 -8 8.5 -29.5t20 -69.5t34.5 -112l17 -51l24 -92l17 -49q-4 54 -4 59l-7 68l-4 141v946h172v-1366h-278l-318 950l-34 125q-12 36 -25 92q0 4 -16 58v-47v-37v-58v-88v-995h-172zM315 1518q5 101 37 145q46 68 119 68q32 0 65.5 -14.5 t104.5 -59.5q43 -25 59 -25q23 0 33 21t12 71h111q-3 -100 -43.5 -155.5t-110.5 -55.5q-52 0 -155 68q-53 31 -76 31q-38 0 -47 -94h-109z" />
<glyph unicode="&#xd2;" horiz-adv-x="952" d="M82 727q0 222 3 303.5t11 122t31 82.5q86 151 360 151q269 0 349 -176q22 -47 28 -139t6 -366q0 -427 -18 -500q-26 -105 -124.5 -165t-244.5 -60q-163 0 -265 65.5t-122 183.5q-14 83 -14 498zM170 1767h211l168 -290h-123zM270 731q0 -271 3 -364t14 -125 q17 -52 67.5 -81.5t124.5 -29.5q106 0 154.5 49.5t48.5 161.5v571q0 150 -6 189t-33 72q-48 61 -174 61q-145 0 -182 -100q-11 -28 -14 -103.5t-3 -300.5z" />
<glyph unicode="&#xd3;" horiz-adv-x="952" d="M82 727q0 222 3 303.5t11 122t31 82.5q86 151 360 151q269 0 349 -176q22 -47 28 -139t6 -366q0 -427 -18 -500q-26 -105 -124.5 -165t-244.5 -60q-163 0 -265 65.5t-122 183.5q-14 83 -14 498zM270 731q0 -271 3 -364t14 -125q17 -52 67.5 -81.5t124.5 -29.5 q106 0 154.5 49.5t48.5 161.5v571q0 150 -6 189t-33 72q-48 61 -174 61q-145 0 -182 -100q-11 -28 -14 -103.5t-3 -300.5zM430 1477l168 290h211l-256 -290h-123z" />
<glyph unicode="&#xd4;" horiz-adv-x="952" d="M82 727q0 222 3 303.5t11 122t31 82.5q86 151 360 151q269 0 349 -176q22 -47 28 -139t6 -366q0 -427 -18 -500q-26 -105 -124.5 -165t-244.5 -60q-163 0 -265 65.5t-122 183.5q-14 83 -14 498zM242 1477l168 288h176l166 -288h-136l-118 170l-119 -170h-137zM270 731 q0 -271 3 -364t14 -125q17 -52 67.5 -81.5t124.5 -29.5q106 0 154.5 49.5t48.5 161.5v571q0 150 -6 189t-33 72q-48 61 -174 61q-145 0 -182 -100q-11 -28 -14 -103.5t-3 -300.5z" />
<glyph unicode="&#xd5;" horiz-adv-x="952" d="M82 727q0 222 3 303.5t11 122t31 82.5q86 151 360 151q269 0 349 -176q22 -47 28 -139t6 -366q0 -427 -18 -500q-26 -105 -124.5 -165t-244.5 -60q-163 0 -265 65.5t-122 183.5q-14 83 -14 498zM248 1518q5 101 37 145q46 68 118 68q32 0 65.5 -14.5t104.5 -59.5 q43 -25 60 -25q23 0 33 21t12 71h110q-3 -100 -43 -155.5t-110 -55.5q-53 0 -156 68q-53 31 -76 31q-38 0 -47 -94h-108zM270 731q0 -271 3 -364t14 -125q17 -52 67.5 -81.5t124.5 -29.5q106 0 154.5 49.5t48.5 161.5v571q0 150 -6 189t-33 72q-48 61 -174 61 q-145 0 -182 -100q-11 -28 -14 -103.5t-3 -300.5z" />
<glyph unicode="&#xd6;" horiz-adv-x="952" d="M82 727q0 222 3 303.5t11 122t31 82.5q86 151 360 151q269 0 349 -176q22 -47 28 -139t6 -366q0 -427 -18 -500q-26 -105 -124.5 -165t-244.5 -60q-163 0 -265 65.5t-122 183.5q-14 83 -14 498zM244 1522v178h170v-178h-170zM270 731q0 -271 3 -364t14 -125 q17 -52 67.5 -81.5t124.5 -29.5q106 0 154.5 49.5t48.5 161.5v571q0 150 -6 189t-33 72q-48 61 -174 61q-145 0 -182 -100q-11 -28 -14 -103.5t-3 -300.5zM580 1522v178h170v-178h-170z" />
<glyph unicode="&#xd7;" d="M98 444l260 258l-260 261l99 98l260 -260l260 260l98 -98l-260 -261l260 -258l-98 -100l-260 260l-260 -260z" />
<glyph unicode="&#xd8;" horiz-adv-x="952" d="M33 12l84 144q-24 67 -29.5 155t-5.5 416q0 222 3 303.5t11 122t31 82.5q83 151 354 151q94 0 153.5 -16t119.5 -57l59 106l107 -63l-82 -146q22 -69 27 -150.5t5 -357.5q0 -424 -18 -497q-26 -104 -124 -164.5t-239 -60.5q-95 0 -162 17.5t-124 57.5l-66 -108zM270 709 q0 -8 1 -71.5t1 -127.5v-117l373 774q-39 68 -176 68q-145 0 -182 -100q-17 -50 -17 -426zM307 203q60 -72 174 -72q63 0 111 24t67 64q15 34 17 59t4 148l2 176v148q0 53 -2 227z" />
<glyph unicode="&#xd9;" horiz-adv-x="995" d="M109 498v868h188v-932q0 -155 29 -215q22 -40 69.5 -64t104.5 -24q62 0 108.5 29t65.5 78q22 62 22 196v932h189v-868q0 -195 -13.5 -267t-60.5 -127q-105 -124 -319 -124q-111 0 -194.5 35t-125.5 102q-34 51 -48.5 138.5t-14.5 242.5zM205 1767h211l168 -290h-123z" />
<glyph unicode="&#xda;" horiz-adv-x="995" d="M109 498v868h188v-932q0 -155 29 -215q22 -40 69.5 -64t104.5 -24q62 0 108.5 29t65.5 78q22 62 22 196v932h189v-868q0 -195 -13.5 -267t-60.5 -127q-105 -124 -319 -124q-111 0 -194.5 35t-125.5 102q-34 51 -48.5 138.5t-14.5 242.5zM444 1477l168 290h211l-256 -290 h-123z" />
<glyph unicode="&#xdb;" horiz-adv-x="995" d="M109 498v868h188v-932q0 -155 29 -215q22 -40 69.5 -64t104.5 -24q62 0 108.5 29t65.5 78q22 62 22 196v932h189v-868q0 -195 -13.5 -267t-60.5 -127q-105 -124 -319 -124q-111 0 -194.5 35t-125.5 102q-34 51 -48.5 138.5t-14.5 242.5zM254 1477l168 288h176l166 -288 h-135l-119 170l-119 -170h-137z" />
<glyph unicode="&#xdc;" horiz-adv-x="995" d="M109 498v868h188v-932q0 -155 29 -215q22 -40 69.5 -64t104.5 -24q62 0 108.5 29t65.5 78q22 62 22 196v932h189v-868q0 -195 -13.5 -267t-60.5 -127q-105 -124 -319 -124q-111 0 -194.5 35t-125.5 102q-34 51 -48.5 138.5t-14.5 242.5zM258 1522v178h170v-178h-170z M594 1522v178h170v-178h-170z" />
<glyph unicode="&#xdd;" horiz-adv-x="909" d="M6 1366h219l146 -340q27 -62 41.5 -110t46.5 -177q48 161 73 217l177 410h192l-342 -791v-575h-188v557zM428 1477l168 290h211l-256 -290h-123z" />
<glyph unicode="&#xde;" horiz-adv-x="899" d="M109 0v1366h188v-205h188q361 0 361 -375q0 -198 -98 -299q-51 -53 -112.5 -71.5t-182.5 -18.5h-156v-397h-188zM297 557h139q119 0 166 47q55 55 55 178q0 115 -53 167t-170 52h-137v-444z" />
<glyph unicode="&#xdf;" horiz-adv-x="933" d="M104 0v1020q0 125 11 172.5t51 91.5q87 96 266 96q140 0 218.5 -67.5t78.5 -188.5q0 -109 -113 -219q-40 -40 -52.5 -60.5t-12.5 -47.5q0 -42 37 -97q14 -18 127 -133q83 -83 118 -153.5t35 -155.5q0 -128 -72 -200t-200 -72q-118 0 -186 60.5t-68 164.5v31h154 q5 -68 12 -84q7 -23 30 -36t52 -13q49 0 76.5 36t27.5 99q0 70 -30 119.5t-140 162.5q-81 83 -114 141.5t-33 120.5q0 43 14 74t49 66q59 60 68.5 71t19.5 27q27 46 27 94q0 64 -34.5 100.5t-94.5 36.5q-40 0 -74 -18t-51 -49q-13 -25 -17.5 -57.5t-4.5 -112.5v-1020h-175z " />
<glyph unicode="&#xe0;" horiz-adv-x="806" d="M84 264q0 122 46 191t149 100q61 19 247 31v90q0 80 -14 108q-12 26 -42.5 41t-70.5 15q-66 0 -91 -35.5t-27 -128.5h-175q1 79 15.5 125.5t48.5 81.5q77 80 233 80q167 0 244 -99q33 -42 43 -90.5t10 -163.5v-610h-174v102q-80 -116 -225 -116q-110 0 -163.5 68 t-53.5 210zM113 1378h204l154 -291h-123zM258 268q0 -141 107 -141q43 0 81 24.5t58 65.5q14 28 18 55t4 88v103q-150 -6 -209 -49t-59 -146z" />
<glyph unicode="&#xe1;" horiz-adv-x="806" d="M84 264q0 122 46 191t149 100q61 19 247 31v90q0 80 -14 108q-12 26 -42.5 41t-70.5 15q-66 0 -91 -35.5t-27 -128.5h-175q1 79 15.5 125.5t48.5 81.5q77 80 233 80q167 0 244 -99q33 -42 43 -90.5t10 -163.5v-610h-174v102q-80 -116 -225 -116q-110 0 -163.5 68 t-53.5 210zM258 268q0 -141 107 -141q43 0 81 24.5t58 65.5q14 28 18 55t4 88v103q-150 -6 -209 -49t-59 -146zM360 1087l154 291h205l-236 -291h-123z" />
<glyph unicode="&#xe2;" horiz-adv-x="806" d="M84 264q0 122 46 191t149 100q61 19 247 31v90q0 80 -14 108q-12 26 -42.5 41t-70.5 15q-66 0 -91 -35.5t-27 -128.5h-175q1 79 15.5 125.5t48.5 81.5q77 80 233 80q167 0 244 -99q33 -42 43 -90.5t10 -163.5v-610h-174v102q-80 -116 -225 -116q-110 0 -163.5 68 t-53.5 210zM164 1090l168 288h176l166 -288h-135l-119 170l-119 -170h-137zM258 268q0 -141 107 -141q43 0 81 24.5t58 65.5q14 28 18 55t4 88v103q-150 -6 -209 -49t-59 -146z" />
<glyph unicode="&#xe3;" horiz-adv-x="806" d="M84 264q0 122 46 191t149 100q61 19 247 31v90q0 80 -14 108q-12 26 -42.5 41t-70.5 15q-66 0 -91 -35.5t-27 -128.5h-175q1 79 15.5 125.5t48.5 81.5q77 80 233 80q167 0 244 -99q33 -42 43 -90.5t10 -163.5v-610h-174v102q-80 -116 -225 -116q-110 0 -163.5 68 t-53.5 210zM174 1126q6 66 13 94t24 52q46 67 117 67q37 0 60.5 -12t80.5 -59q29 -23 49 -23q42 0 45 88h111q-6 -75 -17.5 -108t-42.5 -64q-39 -39 -94 -39q-34 0 -59.5 12.5t-65.5 49.5q-38 33 -59 33q-23 0 -35 -20.5t-18 -70.5h-109zM258 268q0 -141 107 -141 q43 0 81 24.5t58 65.5q14 28 18 55t4 88v103q-150 -6 -209 -49t-59 -146z" />
<glyph unicode="&#xe4;" horiz-adv-x="806" d="M84 264q0 122 46 191t149 100q61 19 247 31v90q0 80 -14 108q-12 26 -42.5 41t-70.5 15q-66 0 -91 -35.5t-27 -128.5h-175q1 79 15.5 125.5t48.5 81.5q77 80 233 80q167 0 244 -99q33 -42 43 -90.5t10 -163.5v-610h-174v102q-80 -116 -225 -116q-110 0 -163.5 68 t-53.5 210zM186 1137v178h170v-178h-170zM258 268q0 -141 107 -141q43 0 81 24.5t58 65.5q14 28 18 55t4 88v103q-150 -6 -209 -49t-59 -146zM481 1137v178h170v-178h-170z" />
<glyph unicode="&#xe5;" horiz-adv-x="806" d="M84 264q0 122 46 191t149 100q61 19 247 31v90q0 80 -14 108q-12 26 -42.5 41t-70.5 15q-66 0 -91 -35.5t-27 -128.5h-175q1 79 15.5 125.5t48.5 81.5q77 80 233 80q167 0 244 -99q33 -42 43 -90.5t10 -163.5v-610h-174v102q-80 -116 -225 -116q-110 0 -163.5 68 t-53.5 210zM217 1245q0 75 54.5 128.5t131.5 53.5q75 0 129 -54.5t54 -129.5t-55 -129.5t-130 -54.5q-76 0 -130 54.5t-54 131.5zM258 268q0 -141 107 -141q43 0 81 24.5t58 65.5q14 28 18 55t4 88v103q-150 -6 -209 -49t-59 -146zM305 1243q0 -40 28 -68t68 -28t68.5 28 t28.5 68q0 38 -28.5 67t-66.5 29q-41 0 -69.5 -28t-28.5 -68z" />
<glyph unicode="&#xe6;" horiz-adv-x="1220" d="M84 262q0 169 115 242q86 55 258 55h84v96q0 86 -25 125q-44 60 -123 60q-65 0 -102 -43q-13 -15 -17.5 -32.5t-9.5 -66.5l-2 -24h-174q6 81 19.5 126.5t39.5 76.5q80 86 226 86q92 0 150 -34.5t100 -111.5q67 146 239 146q82 0 145 -34.5t89 -94.5q23 -50 31 -114 t8 -188v-102h-422v-104q0 -102 18 -148q12 -31 43.5 -50t71.5 -19q62 0 94.5 47.5t32.5 128.5v8h162q2 -18 2 -47q0 -123 -73 -191.5t-202 -68.5q-185 0 -248 147q-81 -147 -262 -147q-128 0 -198 72t-70 204zM258 264q0 -75 32 -115t91 -40q73 0 116.5 64t43.5 171v86h-88 q-104 0 -149.5 -38.5t-45.5 -127.5zM713 559h245v96q0 99 -20 133q-30 52 -98 52q-37 0 -66.5 -16t-42.5 -44q-18 -37 -18 -125v-96z" />
<glyph unicode="&#xe7;" horiz-adv-x="716" d="M84 473q0 186 7.5 253.5t35.5 119.5q60 117 242 117q93 0 159 -30t95 -87q15 -30 21.5 -65.5t12.5 -123.5h-176q-4 75 -14 113q-7 32 -34 51t-64 19q-96 0 -105 -127q-6 -117 -6 -269q0 -175 10 -233q15 -102 111 -102q60 0 88.5 44.5t28.5 139.5v4h174q2 -14 2 -31 q0 -132 -78 -206t-215 -74q-192 0 -252 120q-25 52 -34 131.5t-9 235.5zM201 -418l118 309h121l-69 -309h-170z" />
<glyph unicode="&#xe8;" horiz-adv-x="770" d="M84 526q0 133 10 204t35 114q72 119 254 119q88 0 153.5 -28t96.5 -79q29 -45 40 -111t11 -186v-129h-428v-98q0 -123 29.5 -173t101.5 -50q40 0 73.5 21.5t43.5 55.5q10 29 10 107h170q-6 -137 -49 -203q-70 -104 -252 -104q-228 0 -281 190q-18 70 -18 350zM94 1378 h205l154 -291h-123zM256 559h252v59q0 128 -27 175t-102 47q-70 0 -96.5 -44t-26.5 -163v-74z" />
<glyph unicode="&#xe9;" horiz-adv-x="770" d="M84 526q0 133 10 204t35 114q72 119 254 119q88 0 153.5 -28t96.5 -79q29 -45 40 -111t11 -186v-129h-428v-98q0 -123 29.5 -173t101.5 -50q40 0 73.5 21.5t43.5 55.5q10 29 10 107h170q-6 -137 -49 -203q-70 -104 -252 -104q-228 0 -281 190q-18 70 -18 350zM256 559 h252v59q0 128 -27 175t-102 47q-70 0 -96.5 -44t-26.5 -163v-74zM328 1087l153 291h205l-235 -291h-123z" />
<glyph unicode="&#xea;" horiz-adv-x="770" d="M84 526q0 133 10 204t35 114q72 119 254 119q88 0 153.5 -28t96.5 -79q29 -45 40 -111t11 -186v-129h-428v-98q0 -123 29.5 -173t101.5 -50q40 0 73.5 21.5t43.5 55.5q10 29 10 107h170q-6 -137 -49 -203q-70 -104 -252 -104q-228 0 -281 190q-18 70 -18 350zM145 1090 l168 288h176l166 -288h-135l-119 170l-118 -170h-138zM256 559h252v59q0 128 -27 175t-102 47q-70 0 -96.5 -44t-26.5 -163v-74z" />
<glyph unicode="&#xeb;" horiz-adv-x="770" d="M84 526q0 133 10 204t35 114q72 119 254 119q88 0 153.5 -28t96.5 -79q29 -45 40 -111t11 -186v-129h-428v-98q0 -123 29.5 -173t101.5 -50q40 0 73.5 21.5t43.5 55.5q10 29 10 107h170q-6 -137 -49 -203q-70 -104 -252 -104q-228 0 -281 190q-18 70 -18 350zM174 1137 v178h170v-178h-170zM256 559h252v59q0 128 -27 175t-102 47q-70 0 -96.5 -44t-26.5 -163v-74zM469 1137v178h170v-178h-170z" />
<glyph unicode="&#xec;" horiz-adv-x="385" d="M-68 1378h199l127 -291h-125zM104 0v948h175v-948h-175z" />
<glyph unicode="&#xed;" horiz-adv-x="385" d="M104 0v948h175v-948h-175zM154 1087l127 291h198l-203 -291h-122z" />
<glyph unicode="&#xee;" horiz-adv-x="385" d="M-37 1090l148 288h176l145 -288h-135l-98 178l-99 -178h-137zM104 0v948h175v-948h-175z" />
<glyph unicode="&#xef;" horiz-adv-x="385" d="M-6 1137v178h164v-178h-164zM104 0v948h175v-948h-175zM254 1137v178h164v-178h-164z" />
<glyph unicode="&#xf0;" horiz-adv-x="802" d="M84 451q0 154 6.5 227.5t24.5 120.5q29 76 98.5 120t161.5 44q61 0 94.5 -15t71.5 -59q-12 89 -48 167.5t-83 121.5l-168 -113l-68 82l152 104q-23 16 -84.5 39.5t-104.5 32.5l39 84q55 -4 137.5 -31t122.5 -53l176 119l74 -76l-156 -106q106 -104 147.5 -265.5 t41.5 -462.5q0 -200 -8.5 -281.5t-34.5 -135.5q-31 -63 -102 -96t-173 -33q-91 0 -162.5 30.5t-103.5 83.5q-29 47 -40 123t-11 228zM258 481q0 -219 18 -284q22 -88 119 -88q69 0 102.5 37t41.5 120q6 75 6 215q0 229 -17 281q-26 76 -127 76q-44 0 -76.5 -17t-43.5 -45 q-23 -61 -23 -295z" />
<glyph unicode="&#xf1;" horiz-adv-x="833" d="M104 0v948h175v-74q51 50 97.5 69.5t115.5 19.5q138 0 198 -97q22 -33 29.5 -79.5t7.5 -139.5v-647h-174v631q0 112 -31.5 160.5t-103.5 48.5q-75 0 -107 -52t-32 -172v-616h-175zM201 1126q6 66 13 94t24 52q46 67 116 67q37 0 61 -12t81 -59q29 -23 49 -23q42 0 45 88 h110q-6 -76 -17 -108.5t-42 -63.5q-39 -39 -94 -39q-34 0 -59.5 12.5t-65.5 49.5q-38 33 -60 33q-23 0 -35 -20.5t-18 -70.5h-108z" />
<glyph unicode="&#xf2;" horiz-adv-x="804" d="M84 502q0 235 35 309q67 152 274 152q230 0 293 -156q33 -75 33 -307q0 -177 -8.5 -256.5t-34.5 -128.5q-66 -129 -275 -129q-250 0 -297 192q-20 78 -20 324zM113 1378h204l154 -291h-123zM258 479q0 -101 3.5 -161t11 -105t25 -65.5t41 -29.5t62.5 -9q105 0 129 100 q15 64 15 283q0 205 -10 253q-24 95 -134 95q-115 0 -133 -103q-10 -68 -10 -258z" />
<glyph unicode="&#xf3;" horiz-adv-x="804" d="M84 502q0 235 35 309q67 152 274 152q230 0 293 -156q33 -75 33 -307q0 -177 -8.5 -256.5t-34.5 -128.5q-66 -129 -275 -129q-250 0 -297 192q-20 78 -20 324zM258 479q0 -101 3.5 -161t11 -105t25 -65.5t41 -29.5t62.5 -9q105 0 129 100q15 64 15 283q0 205 -10 253 q-24 95 -134 95q-115 0 -133 -103q-10 -68 -10 -258zM346 1087l154 291h205l-236 -291h-123z" />
<glyph unicode="&#xf4;" horiz-adv-x="804" d="M84 502q0 235 35 309q67 152 274 152q230 0 293 -156q33 -75 33 -307q0 -177 -8.5 -256.5t-34.5 -128.5q-66 -129 -275 -129q-250 0 -297 192q-20 78 -20 324zM154 1090l168 288h176l166 -288h-136l-118 170l-119 -170h-137zM258 479q0 -101 3.5 -161t11 -105t25 -65.5 t41 -29.5t62.5 -9q105 0 129 100q15 64 15 283q0 205 -10 253q-24 95 -134 95q-115 0 -133 -103q-10 -68 -10 -258z" />
<glyph unicode="&#xf5;" horiz-adv-x="804" d="M84 502q0 235 35 309q67 152 274 152q230 0 293 -156q33 -75 33 -307q0 -177 -8.5 -256.5t-34.5 -128.5q-66 -129 -275 -129q-250 0 -297 192q-20 78 -20 324zM193 1126q6 67 12.5 94.5t23.5 51.5q46 67 117 67q37 0 60.5 -12t80.5 -59q29 -23 50 -23q42 0 45 88h110 q-6 -76 -17 -108.5t-42 -63.5q-39 -39 -94 -39q-34 0 -59.5 12.5t-65.5 49.5q-38 33 -60 33q-23 0 -35 -20.5t-18 -70.5h-108zM258 479q0 -101 3.5 -161t11 -105t25 -65.5t41 -29.5t62.5 -9q105 0 129 100q15 64 15 283q0 205 -10 253q-24 95 -134 95q-115 0 -133 -103 q-10 -68 -10 -258z" />
<glyph unicode="&#xf6;" horiz-adv-x="804" d="M84 502q0 235 35 309q67 152 274 152q230 0 293 -156q33 -75 33 -307q0 -177 -8.5 -256.5t-34.5 -128.5q-66 -129 -275 -129q-250 0 -297 192q-20 78 -20 324zM182 1137v178h170v-178h-170zM258 479q0 -101 3.5 -161t11 -105t25 -65.5t41 -29.5t62.5 -9q105 0 129 100 q15 64 15 283q0 205 -10 253q-24 95 -134 95q-115 0 -133 -103q-10 -68 -10 -258zM477 1137v178h170v-178h-170z" />
<glyph unicode="&#xf7;" d="M76 633v139h764v-139h-764zM375 313v172h166v-172h-166zM375 924v170h166v-170h-166z" />
<glyph unicode="&#xf8;" horiz-adv-x="804" d="M41 12l78 119q-20 49 -27.5 129t-7.5 240q0 234 35 311q35 78 101.5 115t172.5 37q143 0 230 -64l57 88l82 -57l-78 -117q22 -58 28.5 -119t6.5 -194q0 -175 -9.5 -255.5t-35.5 -129.5q-66 -129 -266 -129q-155 0 -230 63l-57 -88zM258 315l264 463q-35 62 -123 62 q-105 0 -127 -86q-17 -60 -14 -439zM285 168q30 -59 116 -59q77 0 108 48.5t34 174.5q2 106 2 305z" />
<glyph unicode="&#xf9;" horiz-adv-x="817" d="M104 297v651h175v-637q0 -115 20 -151q12 -23 39 -37t61 -14q102 0 127 98q11 51 11 158v583h174v-948h-174v84q-41 -52 -86 -75t-107 -23q-63 0 -117.5 27t-83.5 73q-23 36 -31 80t-8 131zM127 1378h205l153 -291h-123z" />
<glyph unicode="&#xfa;" horiz-adv-x="817" d="M104 297v651h175v-637q0 -115 20 -151q12 -23 39 -37t61 -14q102 0 127 98q11 51 11 158v583h174v-948h-174v84q-41 -52 -86 -75t-107 -23q-63 0 -117.5 27t-83.5 73q-23 36 -31 80t-8 131zM358 1087l154 291h205l-236 -291h-123z" />
<glyph unicode="&#xfb;" horiz-adv-x="817" d="M104 297v651h175v-637q0 -115 20 -151q12 -23 39 -37t61 -14q102 0 127 98q11 51 11 158v583h174v-948h-174v84q-41 -52 -86 -75t-107 -23q-63 0 -117.5 27t-83.5 73q-23 36 -31 80t-8 131zM164 1090l168 288h176l166 -288h-135l-119 170l-119 -170h-137z" />
<glyph unicode="&#xfc;" horiz-adv-x="817" d="M104 297v651h175v-637q0 -115 20 -151q12 -23 39 -37t61 -14q102 0 127 98q11 51 11 158v583h174v-948h-174v84q-41 -52 -86 -75t-107 -23q-63 0 -117.5 27t-83.5 73q-23 36 -31 80t-8 131zM188 1137v178h170v-178h-170zM483 1137v178h170v-178h-170z" />
<glyph unicode="&#xfd;" horiz-adv-x="806" d="M23 948h198l113 -442q22 -85 65 -301l19 76q15 67 20 81l27 97l141 489h170l-403 -1294h-180l108 330zM360 1087l154 291h205l-236 -291h-123z" />
<glyph unicode="&#xfe;" horiz-adv-x="806" d="M104 -354v1720h175v-496q40 51 82 72t104 21q94 0 158 -49t84 -138q14 -60 14 -317q0 -243 -27 -314q-28 -73 -93 -116t-148 -43q-56 0 -95.5 18.5t-78.5 63.5v-422h-175zM279 348q0 -107 18 -155q15 -38 48 -61t71 -23q100 0 121 122q10 58 10 224q0 227 -10 272 q-21 113 -123 113q-79 0 -115 -80q-20 -50 -20 -160v-252z" />
<glyph unicode="&#xff;" horiz-adv-x="806" d="M23 948h198l113 -442q22 -85 65 -301l19 76q15 67 20 81l27 97l141 489h170l-403 -1294h-180l108 330zM186 1137v178h170v-178h-170zM481 1137v178h170v-178h-170z" />
<glyph unicode="&#x152;" horiz-adv-x="1376" d="M82 805q0 254 6 307q34 274 387 274q92 0 187 -14q50 -6 71 -6h563v-160h-428v-434h404v-160h-404v-452h453v-160h-569q-48 0 -183 -14q-49 -6 -92 -6q-138 0 -239 53.5t-129 142.5q-19 60 -23 153.5t-4 475.5zM268 858q0 -391 1 -461.5t5 -101.5q21 -164 201 -164 q119 0 168 62q37 45 37 159v621q0 87 -7.5 127.5t-29.5 68.5q-48 66 -176 66q-107 0 -153 -50.5t-46 -168.5v-158z" />
<glyph unicode="&#x153;" horiz-adv-x="1232" d="M82 510q0 131 10 201t35 120q69 132 260 132q80 0 131 -23t111 -86q49 58 103.5 83.5t129.5 25.5q78 0 141.5 -29t94.5 -80q49 -82 49 -266v-158h-426v-98q0 -120 30 -171.5t99 -51.5q129 0 129 172v12h168q0 -157 -72 -232t-223 -75q-72 0 -120.5 22.5t-102.5 81.5 q-56 -58 -106.5 -81t-125.5 -23q-233 0 -286 168q-17 54 -23 127t-6 229zM256 463q0 -96 3.5 -153.5t11 -100.5t24.5 -63t40.5 -28.5t61.5 -8.5q63 0 92.5 28.5t41.5 100t12 221.5q0 173 -6 240t-23 92q-34 49 -117 49q-78 0 -112 -49q-19 -25 -24 -83t-5 -245zM721 559h250 q-1 110 -3 137t-10 62q-18 82 -116 82q-75 0 -103 -54q-12 -25 -15 -60.5t-3 -166.5z" />
<glyph unicode="&#x178;" horiz-adv-x="909" d="M6 1366h219l146 -340q27 -62 41.5 -110t46.5 -177q48 161 73 217l177 410h192l-342 -791v-575h-188v557zM225 1522v178h170v-178h-170zM561 1522v178h170v-178h-170z" />
<glyph unicode="&#x2c6;" horiz-adv-x="1024" d="M256 1090l168 288h176l166 -288h-135l-119 170l-119 -170h-137z" />
<glyph unicode="&#x2dc;" horiz-adv-x="1024" d="M262 1126q6 66 13 94t24 52q46 67 117 67q37 0 60.5 -12t80.5 -59q29 -23 49 -23q42 0 45 88h111q-6 -75 -17.5 -108t-42.5 -64q-39 -39 -94 -39q-34 0 -59.5 12.5t-65.5 49.5q-38 33 -59 33q-23 0 -35 -20.5t-18 -70.5h-109z" />
<glyph unicode="&#x2000;" horiz-adv-x="908" />
<glyph unicode="&#x2001;" horiz-adv-x="1817" />
<glyph unicode="&#x2002;" horiz-adv-x="908" />
<glyph unicode="&#x2003;" horiz-adv-x="1817" />
<glyph unicode="&#x2004;" horiz-adv-x="605" />
<glyph unicode="&#x2005;" horiz-adv-x="454" />
<glyph unicode="&#x2006;" horiz-adv-x="302" />
<glyph unicode="&#x2007;" horiz-adv-x="302" />
<glyph unicode="&#x2008;" horiz-adv-x="227" />
<glyph unicode="&#x2009;" horiz-adv-x="363" />
<glyph unicode="&#x200a;" horiz-adv-x="100" />
<glyph unicode="&#x2010;" horiz-adv-x="344" d="M0 444v154h344v-154h-344z" />
<glyph unicode="&#x2011;" horiz-adv-x="344" d="M0 444v154h344v-154h-344z" />
<glyph unicode="&#x2012;" horiz-adv-x="344" d="M0 444v154h344v-154h-344z" />
<glyph unicode="&#x2013;" horiz-adv-x="800" d="M88 444v154h625v-154h-625z" />
<glyph unicode="&#x2014;" horiz-adv-x="1030" d="M0 444v154h1030v-154h-1030z" />
<glyph unicode="&#x2018;" horiz-adv-x="411" d="M82 1042l135 324h113l-64 -324h-184z" />
<glyph unicode="&#x2019;" horiz-adv-x="411" d="M82 1042l63 324h185l-133 -324h-115z" />
<glyph unicode="&#x201a;" horiz-adv-x="411" d="M82 -188l63 323h185l-133 -323h-115z" />
<glyph unicode="&#x201c;" horiz-adv-x="688" d="M82 1042l135 324h113l-64 -324h-184zM356 1042l136 324h114l-63 -324h-187z" />
<glyph unicode="&#x201d;" horiz-adv-x="688" d="M82 1042l63 324h185l-133 -324h-115zM356 1042l64 324h186l-135 -324h-115z" />
<glyph unicode="&#x201e;" horiz-adv-x="688" d="M82 -188l63 323h185l-133 -323h-115zM356 -188l64 323h186l-135 -323h-115z" />
<glyph unicode="&#x2022;" horiz-adv-x="1366" d="M401 692q0 120 83.5 202.5t205.5 82.5q114 0 196.5 -83.5t82.5 -199.5q0 -118 -83 -201t-200 -83t-201 82.5t-84 199.5z" />
<glyph unicode="&#x2026;" horiz-adv-x="1146" d="M104 0v184h175v-184h-175zM487 0v184h175v-184h-175zM868 0v184h174v-184h-174z" />
<glyph unicode="&#x202f;" horiz-adv-x="363" />
<glyph unicode="&#x2039;" horiz-adv-x="442" d="M55 504l162 373h143l-131 -373l160 -373h-151z" />
<glyph unicode="&#x203a;" horiz-adv-x="442" d="M55 131l162 373l-133 373h145l160 -373l-182 -373h-152z" />
<glyph unicode="&#x205f;" horiz-adv-x="454" />
<glyph unicode="&#x20ac;" horiz-adv-x="1046" d="M90 500l43 135h82v29v30v19v20h-125l43 135h84v9l12 245q3 59 44.5 120t101.5 95q84 49 215 49q226 0 319 -157q50 -84 47 -258h-186q0 117 -22 168q-44 96 -156 96q-74 0 -120 -35.5t-58 -101.5q-11 -80 -11 -230h295l-43 -135h-252l3 -98h219l-43 -135h-176 q3 -176 6 -213q6 -72 54.5 -114t125.5 -42q109 0 151 80q14 28 20 75t7 148h186q2 -16 2 -37q0 -218 -86.5 -317.5t-277.5 -99.5q-293 0 -352 210q-16 57 -20.5 94t-4.5 150v66h-127z" />
<glyph unicode="&#x2122;" horiz-adv-x="1343" d="M18 1260v106h514v-106h-194v-672h-125v672h-195zM580 588v778h198l121 -451q12 -43 27 -143q16 95 28 143l121 451h187v-778h-111v647l-176 -647h-105l-180 649v-649h-110z" />
<glyph unicode="&#xe000;" horiz-adv-x="952" d="M0 0v952h952v-952h-952z" />
</font>
</defs>
</svg>
